<svg width="140" height="28" viewBox="0 0 140 28" fill="none" xmlns="http://www.w3.org/2000/svg">
<path d="M25.5129 2.94033L24.9786 2.67303C21.1049 0.868735 17.0309 0 12.7565 0C8.48206 0 4.3412 0.935561 0.534305 2.67303L0 2.94033V3.80907C0 13.2315 4.60835 22.1193 12.2222 27.5991L12.7565 28L13.2907 27.5991C20.9045 22.1193 25.5129 13.2315 25.5129 3.80907V2.94033ZM12.7565 25.728V1.8043C16.5633 1.87112 20.2367 2.60621 23.7096 4.1432C23.5761 12.6301 19.5019 20.6492 12.7565 25.728Z" fill="#292D33"/>
<path d="M41.6076 18.9781H36.7988V6.34802H34.3945V21.2502H43.2105C42.5426 20.6488 42.0083 19.8468 41.6076 18.9781Z" fill="#292D33"/>
<path d="M42.8095 15.9714C42.8095 12.8973 45.2138 10.4248 48.286 10.4248C51.3582 10.4248 53.7625 12.8973 53.7625 15.9714C53.7625 16.3055 53.7625 16.7064 53.6958 17.0406H45.2138C45.5477 18.5108 46.8835 19.3795 48.3528 19.3795C49.4881 19.3795 50.5568 18.9117 51.2915 18.043L52.8943 19.4463C49.4214 23.3222 42.8095 21.3842 42.8095 15.9714ZM51.2915 15.0358C50.49 11.8282 45.8148 11.8282 45.2138 15.0358H51.2915Z" fill="#292D33"/>
<path d="M59.907 21.518C56.9016 21.518 54.6308 18.9786 54.6308 16.0383C54.6308 13.1648 56.9016 10.4917 59.907 10.4917C61.3763 10.4917 62.5786 11.16 63.4468 12.3629V10.6923H65.7844V20.1147C65.7844 23.6564 63.9811 25.9954 60.3077 25.9954C57.9701 25.9954 56.1001 24.8593 55.0316 22.7877L57.0351 21.7185C57.6362 23.055 58.8384 23.7901 60.3077 23.7901C62.6453 23.7901 63.4468 22.1863 63.5136 20.0479V19.5801C62.5786 20.8498 61.3763 21.518 59.907 21.518ZM60.241 19.3128C62.111 19.3128 63.5136 17.8426 63.5136 15.9715C63.5136 14.1004 62.111 12.6302 60.241 12.6302C58.3709 12.6302 56.9684 14.1672 56.9684 15.9715C56.9684 17.8426 58.3709 19.3128 60.241 19.3128Z" fill="#292D33"/>
<path d="M72.1966 21.518C69.1911 21.518 66.9204 18.9786 66.9204 16.0383C66.9204 13.1648 69.1911 10.4917 72.1966 10.4917C73.6661 10.4917 74.8681 11.16 75.7365 12.3629V10.6923H78.0736V21.3176H75.7365V19.6469C74.8681 20.8498 73.6661 21.518 72.1966 21.518ZM72.5973 19.3128C74.4676 19.3128 75.8702 17.8426 75.8702 15.9715C75.8702 14.1004 74.4676 12.6302 72.5973 12.6302C70.7273 12.6302 69.3247 14.1672 69.3247 15.9715C69.2579 17.8426 70.7273 19.3128 72.5973 19.3128Z" fill="#292D33"/>
<path d="M80.2778 6.34802H82.6149V21.2502H80.2778V6.34802Z" fill="#292D33"/>
<path d="M89.3612 19.2458C90.4963 19.2458 92.5668 18.778 92.5668 17.3078C92.5668 14.1002 84.6193 15.704 84.6193 10.358C84.6193 7.28393 87.6243 6.14795 90.2957 6.14795C91.6983 6.14795 93.3684 6.61568 94.7041 7.21712L93.8356 9.35553C92.7674 8.8878 91.4985 8.48681 90.2957 8.48681C89.0269 8.48681 87.0902 8.75409 87.0902 10.4248C87.0902 13.6992 95.0376 12.0286 95.0376 17.3746C95.0376 20.3818 91.9658 21.5847 89.3612 21.5847C87.758 21.5847 86.0887 20.9833 84.6193 20.3818L85.5538 18.2434C86.6897 18.7111 88.1584 19.2458 89.3612 19.2458Z" fill="#292D33"/>
<path d="M98.9787 12.4292C99.5129 11.0926 100.715 10.4244 102.117 10.4244C104.923 10.4244 105.924 12.8302 105.924 15.3027V21.2502H103.721V15.3027C103.721 13.7657 102.986 12.5628 101.383 12.5628C99.7795 12.5628 99.0448 13.7657 99.0448 15.3027V21.2502H96.7077V6.34802H99.0448V12.4292H98.9787Z" fill="#292D33"/>
<path d="M108.061 6.34802H110.399V9.02106H108.061V6.34802ZM108.061 10.6249H110.399V21.2502H108.061V10.6249Z" fill="#292D33"/>
<path d="M112.002 15.9714C112.002 12.8973 114.406 10.4248 117.478 10.4248C120.55 10.4248 122.955 12.8973 122.955 15.9714C122.955 16.3055 122.955 16.7064 122.888 17.0406H114.406C114.74 18.5108 116.076 19.3795 117.545 19.3795C118.68 19.3795 119.749 18.9117 120.483 18.043L122.086 19.4463C118.613 23.3222 112.002 21.3842 112.002 15.9714ZM120.55 15.0358C119.749 11.8282 115.074 11.8282 114.473 15.0358H120.55Z" fill="#292D33"/>
<path d="M124.357 6.34802H126.695V21.2502H124.357V6.34802Z" fill="#292D33"/>
<path d="M133.107 21.5173C130.101 21.5173 127.831 18.9779 127.831 16.0375C127.831 13.164 130.101 10.491 133.107 10.491C134.576 10.491 135.778 11.1592 136.646 12.3621V6.41462H138.984V21.3167H136.646V19.6461C135.778 20.849 134.576 21.5173 133.107 21.5173ZM133.507 19.312C135.378 19.312 136.78 17.8418 136.78 15.9707C136.78 14.0996 135.378 12.6294 133.507 12.6294C131.637 12.6294 130.235 14.1664 130.235 15.9707C130.168 17.8418 131.637 19.312 133.507 19.312Z" fill="#292D33"/>
</svg>
